<svg width="1024" height="1024" viewBox="0 0 1024 1024" fill="none" xmlns="http://www.w3.org/2000/svg">
<path d="M272.632 766.526C263.958 757.852 258.204 747.928 255.368 736.752C252.532 725.576 252.616 714.484 255.618 703.476C244.61 692.468 239.106 679.124 239.106 663.444C239.106 647.766 244.61 634.422 255.618 623.412L326.674 552.356C320.002 519.664 321.42 486.722 330.928 453.528C340.436 420.336 357.7 391.23 382.718 366.21C423.084 325.844 471.454 305.662 527.832 305.662C584.21 305.662 632.582 325.844 672.946 366.21C713.312 406.576 733.494 454.946 733.494 511.324C733.494 567.702 713.312 616.072 672.946 656.438C647.26 682.124 617.986 699.556 585.126 708.73C552.266 717.904 519.492 719.154 486.798 712.482L415.742 783.538C404.734 794.546 391.39 800.05 375.71 800.05C360.03 800.05 346.688 794.546 335.678 783.538C324.67 786.54 313.578 786.624 302.402 783.788C291.226 780.952 281.302 775.198 272.628 766.524L272.632 766.526ZM295.65 663.446L375.712 743.508L393.726 725.494L313.664 645.432L295.65 663.446ZM333.68 625.416L413.742 705.478L432.756 686.464L352.694 606.402L333.68 625.416ZM388.722 562.366L417.744 591.388L471.786 537.346V449.276H513.82V525.336H589.88V567.37H501.81L447.768 621.412L476.79 650.434C503.478 659.774 530.916 661.692 559.104 656.188C587.292 650.684 611.896 637.424 632.912 616.406C662.268 587.05 676.946 552.022 676.946 511.324C676.946 470.626 662.268 435.598 632.912 406.242C603.556 376.886 568.528 362.208 527.83 362.208C487.132 362.208 452.104 376.886 422.748 406.242C401.732 427.258 388.472 451.862 382.966 480.05C377.462 508.238 379.38 535.678 388.72 562.364L388.722 562.366Z" fill="#1168B0" style="fill:#1168B0;fill:color(display-p3 0.0667 0.4078 0.6902);fill-opacity:1;"/>
<path d="M767.368 271.79L724.942 314.216" stroke="#1168B0" style="stroke:#1168B0;stroke:color(display-p3 0.0667 0.4078 0.6902);stroke-opacity:1;" stroke-width="42" stroke-miterlimit="10" stroke-linecap="round"/>
<path d="M777.904 417.93H837.904" stroke="#1168B0" style="stroke:#1168B0;stroke:color(display-p3 0.0667 0.4078 0.6902);stroke-opacity:1;" stroke-width="42" stroke-miterlimit="10" stroke-linecap="round"/>
<path d="M621.228 201.254V261.254" stroke="#1168B0" style="stroke:#1168B0;stroke:color(display-p3 0.0667 0.4078 0.6902);stroke-opacity:1;" stroke-width="42" stroke-miterlimit="10" stroke-linecap="round"/>
</svg>
